{
    "asset" : {
        "generator" : "Khronos glTF Blender I/O v1.5.17",
        "version" : "2.0"
    },
    "scene" : 0,
    "scenes" : [
        {
            "name" : "Scene",
            "nodes" : [
                0
            ]
        }
    ],
    "nodes" : [
        {
            "mesh" : 0,
            "name" : "virus"
        }
    ],
    "meshes" : [
        {
            "name" : "virus",
            "primitives" : [
                {
                    "attributes" : {
                        "POSITION" : 0,
                        "NORMAL" : 1,
                        "TEXCOORD_0" : 2
                    },
                    "indices" : 3
                }
            ]
        }
    ],
    "accessors" : [
        {
            "bufferView" : 0,
            "componentType" : 5126,
            "count" : 25238,
            "max" : [
                42.536659240722656,
                36.144840240478516,
                42.58869552612305
            ],
            "min" : [
                -42.536659240722656,
                -44.40885925292969,
                -40.711326599121094
            ],
            "type" : "VEC3"
        },
        {
            "bufferView" : 1,
            "componentType" : 5126,
            "count" : 25238,
            "type" : "VEC3"
        },
        {
            "bufferView" : 2,
            "componentType" : 5126,
            "count" : 25238,
            "type" : "VEC2"
        },
        {
            "bufferView" : 3,
            "componentType" : 5123,
            "count" : 126702,
            "type" : "SCALAR"
        }
    ],
    "bufferViews" : [
        {
            "buffer" : 0,
            "byteLength" : 302856,
            "byteOffset" : 0
        },
        {
            "buffer" : 0,
            "byteLength" : 302856,
            "byteOffset" : 302856
        },
        {
            "buffer" : 0,
            "byteLength" : 201904,
            "byteOffset" : 605712
        },
        {
            "buffer" : 0,
            "byteLength" : 253404,
            "byteOffset" : 807616
        }
    ],
    "buffers" : [
        {
            "byteLength" : 1061020,
            "uri" : "data:application/octet-stream;base64,"
        }
    ]
}
